<svg width="128" height="128" viewBox="0 0 128 128" fill="none" xmlns="http://www.w3.org/2000/svg">
<g clip-path="url(#clip0_157_242)">
<path d="M128 0H0V128H128V0Z" fill="#5865F2"/>
<path d="M97.2715 33.9505C91.1725 31.1671 84.5933 29.1517 77.7259 28C77.5819 28 77.4858 28.048 77.3898 28.144C76.5254 29.6316 75.6129 31.5511 74.9406 33.0386C67.545 31.935 60.1974 31.935 52.9939 33.0386C52.3696 31.5031 51.4091 29.6316 50.5446 28.144C50.4966 28.048 50.3526 28 50.2565 28C43.3891 29.1517 36.81 31.2151 30.711 33.9505C30.663 33.9505 30.615 33.9984 30.5669 34.0464C18.1289 52.3296 14.7193 70.181 16.4 87.7924C16.4 87.8884 16.448 87.9842 16.5441 88.0322C24.7081 93.9827 32.68 97.5817 40.4598 99.9811C40.6039 100.029 40.6999 99.9811 40.7959 99.8852C42.6209 97.3899 44.3016 94.7985 45.6943 92.0153C45.7904 91.8713 45.6943 91.6794 45.5503 91.5834C42.957 90.6236 40.4598 89.4239 38.0586 88.0803C37.8665 87.9843 37.8665 87.6964 38.0106 87.6004C38.4908 87.2165 39.019 86.8326 39.4993 86.4488C39.5954 86.4008 39.6914 86.3527 39.7874 86.4007C55.4911 93.4549 72.5394 93.4549 88.051 86.4007C88.147 86.3527 88.2911 86.3528 88.3871 86.4488C88.8674 86.8326 89.3476 87.2165 89.8759 87.6004C90.068 87.7444 90.0199 87.9843 89.8279 88.0803C87.4266 89.4719 84.9295 90.6236 82.3361 91.5834C82.1441 91.6314 82.096 91.8233 82.1921 92.0153C83.6328 94.7505 85.2656 97.3899 87.0905 99.8372C87.1865 99.9331 87.2826 99.9811 87.4266 99.9331C95.2545 97.5338 103.226 93.9347 111.438 88.0322C111.486 87.9842 111.534 87.8884 111.583 87.7924C113.599 67.3977 108.221 49.7384 97.3675 34.0464C97.3675 34.0464 97.3195 33.9984 97.2715 33.9505ZM48.0475 77.0911C43.2931 77.0911 39.4033 72.8202 39.4033 67.5896C39.4033 62.359 43.2451 58.0881 48.0475 58.0881C52.8979 58.0881 56.7398 62.407 56.6916 67.5896C56.6916 72.8202 52.8498 77.0911 48.0475 77.0911ZM79.983 77.0911C75.2288 77.0911 71.3389 72.8202 71.3389 67.5896C71.3389 62.359 75.1806 58.0881 79.983 58.0881C84.8334 58.0881 88.6753 62.407 88.6273 67.5896C88.6273 72.8202 84.8334 77.0911 79.983 77.0911Z" fill="white"/>
</g>
<defs>
<clipPath id="clip0_157_242">
<rect width="128" height="128" fill="white"/>
</clipPath>
</defs>
</svg>
