<svg width="128" height="128" viewBox="0 0 128 128" fill="none" xmlns="http://www.w3.org/2000/svg">
<rect width="128" height="128" fill="url(#paint0_linear_6704_13461)"/>
<g filter="url(#filter0_d_6704_13461)">
<path d="M85.8486 51.1875C103.389 51.1877 117.633 63.1525 117.633 77.8418C117.633 85.8972 113.395 93.1237 106.686 97.9805C106.096 98.4538 105.744 99.0464 105.744 99.7578C105.744 99.9937 105.744 100.231 105.86 100.468C106.331 102.48 107.272 105.674 107.274 105.799C107.274 106.153 107.391 106.391 107.392 106.628C107.391 107.22 106.92 107.694 106.332 107.694C106.097 107.694 105.979 107.576 105.744 107.457L98.7979 103.431C98.3265 103.194 97.7374 102.956 97.1494 102.956C96.7966 102.956 96.4432 102.957 96.207 103.075C93.0294 104.022 89.4976 104.496 85.8486 104.496C68.308 104.496 54.0639 92.5309 54.0635 77.8418C54.0635 63.0338 68.3077 51.1875 85.8486 51.1875ZM49.6924 21.7871C68.934 21.7874 84.8438 33.594 87.5254 48.9404C86.7954 48.9008 86.0592 48.8789 85.3174 48.8789C66.6722 48.8789 51.5306 61.4708 51.5303 77.2109C51.5303 79.9724 52.0059 82.643 52.8887 85.1689C51.8348 85.2414 50.7688 85.2812 49.6924 85.2812C45.3259 85.2812 41.0776 84.6938 37.1826 83.5176C36.829 83.3991 36.3576 83.3994 36.0029 83.3994C35.2954 83.3994 34.5861 83.6355 33.9961 83.9873L25.6182 88.8086C25.382 88.9262 25.1453 89.0439 24.9102 89.0439C24.2017 89.0439 23.6116 88.4565 23.6113 87.751C23.6114 87.3983 23.7301 87.1623 23.8477 86.8096C23.9665 86.6879 25.0285 82.81 25.6182 80.46C25.6184 80.2247 25.7363 79.8718 25.7363 79.6367C25.7362 78.6969 25.3813 77.9909 24.6738 77.5205C16.6497 71.7596 11.4572 63.0581 11.457 53.5342C11.4572 36.0152 28.5686 21.7871 49.6924 21.7871ZM75.5596 65.3135C73.171 65.3136 71.2607 67.2247 71.2607 69.6133C71.2611 72.0015 73.1713 73.912 75.5596 73.9121C77.9478 73.912 79.859 72.0015 79.8594 69.6133C79.8594 67.2247 77.9481 65.3136 75.5596 65.3135ZM96.751 65.3135C94.3624 65.3135 92.4512 67.2247 92.4512 69.6133C92.4516 72.0016 94.3626 73.9121 96.751 73.9121C99.1392 73.912 101.049 72.0015 101.05 69.6133C101.05 67.2247 99.1395 65.3136 96.751 65.3135ZM36.9463 38.3711C34.2049 38.3711 32.0324 40.5428 32.0322 43.2852C32.0322 46.0276 34.2029 48.1992 36.9463 48.1992C39.6896 48.1991 41.8603 46.0275 41.8604 43.2852C41.8602 40.5429 39.6876 38.3712 36.9463 38.3711ZM62.4365 38.3711C59.6942 38.3712 57.5226 40.5429 57.5225 43.2852C57.5225 46.0276 59.6941 48.1991 62.4365 48.1992C65.0933 48.1991 67.2141 46.1609 67.3438 43.54L67.3506 43.2852C67.3505 40.5429 65.1788 38.3712 62.4365 38.3711Z" fill="url(#paint1_linear_6704_13461)"/>
</g>
<defs>
<filter id="filter0_d_6704_13461" x="6.01022" y="17.4297" width="117.069" height="96.8018" filterUnits="userSpaceOnUse" color-interpolation-filters="sRGB">
<feFlood flood-opacity="0" result="BackgroundImageFix"/>
<feColorMatrix in="SourceAlpha" type="matrix" values="0 0 0 0 0 0 0 0 0 0 0 0 0 0 0 0 0 0 127 0" result="hardAlpha"/>
<feOffset dy="1.08936"/>
<feGaussianBlur stdDeviation="2.7234"/>
<feComposite in2="hardAlpha" operator="out"/>
<feColorMatrix type="matrix" values="0 0 0 0 0 0 0 0 0 0 0 0 0 0 0 0 0 0 0.08 0"/>
<feBlend mode="normal" in2="BackgroundImageFix" result="effect1_dropShadow_6704_13461"/>
<feBlend mode="normal" in="SourceGraphic" in2="effect1_dropShadow_6704_13461" result="shape"/>
</filter>
<linearGradient id="paint0_linear_6704_13461" x1="64" y1="0" x2="64" y2="128" gradientUnits="userSpaceOnUse">
<stop stop-color="#00DE6E"/>
<stop offset="1" stop-color="#05D166"/>
</linearGradient>
<linearGradient id="paint1_linear_6704_13461" x1="64.8173" y1="95.8644" x2="64.8173" y2="29.6851" gradientUnits="userSpaceOnUse">
<stop stop-color="#B4F1D1"/>
<stop offset="1" stop-color="white"/>
</linearGradient>
</defs>
</svg>
