<svg width="128" height="128" viewBox="0 0 128 128" fill="none" xmlns="http://www.w3.org/2000/svg">
<g clip-path="url(#clip0_157_246)">
<path d="M0 0H128V128H0" fill="white"/>
<path d="M72.75 55C73.75 54.3333 74.4167 54.25 74.75 54.75C75.0833 55.25 74.8333 55.9167 74 56.75C66.25 64.75 60.5 69.25 57.25 73C55.75 74.6667 56.1667 76.3333 58.5 78L74 88.5C80.25 92.75 82.25 89.25 83 85C85.8333 69.8333 87.8333 57.25 89 47.25C89.5 43.5 88.25 41.5 83.5 43C79 44.3333 62.8333 51.0833 35 63.25C29.75 65.25 30.75 67.5 33.75 68.5C36.75 69.5 39 70.25 42 71C45 71.75 47 72 50.5 69.75M64.25 16C76.9586 16.0662 89.1222 21.1696 98.0734 30.1911C107.025 39.2125 112.033 51.4157 112 64.1244C111.967 76.833 106.895 89.0099 97.8969 97.9846C88.8988 106.959 76.7087 111.999 64 111.999C51.2913 111.999 39.1012 106.959 30.1031 97.9846C21.105 89.0099 16.0333 76.833 16.0002 64.1244C15.9671 51.4157 20.9753 39.2125 29.9266 30.1911C38.8778 21.1696 51.0414 16.0662 63.75 16" fill="url(#paint0_linear_157_246)"/>
</g>
<defs>
<linearGradient id="paint0_linear_157_246" x1="16" y1="16" x2="16" y2="111.999" gradientUnits="userSpaceOnUse">
<stop stop-color="#2AABEE"/>
<stop offset="1" stop-color="#229ED9"/>
</linearGradient>
<clipPath id="clip0_157_246">
<rect width="128" height="128" fill="white"/>
</clipPath>
</defs>
</svg>
