<svg width="128" height="128" viewBox="0 0 128 128" fill="none" xmlns="http://www.w3.org/2000/svg">
<rect width="128" height="128" fill="url(#paint0_linear_157_249)"/>
<path d="M64 22.158C51.5399 22.158 39.5902 26.2809 30.7795 33.6195C21.9689 40.9582 17.0191 50.9115 17.019 61.2899C17.0304 68.0406 19.1382 74.674 23.1376 80.5455C27.1369 86.4169 32.8918 91.3268 39.843 94.7979C37.9917 98.9427 35.215 102.829 31.628 106.297C38.584 105.076 45.1138 102.511 50.709 98.801C55.0233 99.8688 59.4994 100.415 64 100.422C76.4602 100.422 88.4099 96.299 97.2206 88.9604C106.031 81.6217 110.981 71.6684 110.981 61.2899C110.981 50.9115 106.031 40.9582 97.2205 33.6195C88.4099 26.2809 76.4602 22.158 64 22.158Z" fill="white"/>
<defs>
<linearGradient id="paint0_linear_157_249" x1="65.0159" y1="119.503" x2="65.0159" y2="15.8854" gradientUnits="userSpaceOnUse">
<stop stop-color="#0CBD2A"/>
<stop offset="1" stop-color="#5BF675"/>
</linearGradient>
</defs>
</svg>
